<svg xmlns="http://www.w3.org/2000/svg" xmlns:xlink="http://www.w3.org/1999/xlink" width="886" height="242" viewBox="0 0 886 242"><defs><style>.a,.b,.c,.l{fill:#fff;}.a{stroke:#707070;}.b,.d{opacity:0.5;}.e{fill:#51c4a1;}.f{fill:#5ce5bd;}.g{fill:#71ffd3;}.h{fill:#ce659c;opacity:0.7;}.i{fill:#ff9fcf;}.i,.j{opacity:0.6;}.j{fill:#ffc0e3;}.k{fill:rgba(255,255,255,0.55);stroke-width:4px;}.k,.o{stroke:#fff;}.l{font-size:17px;font-family:Chalkduster;}.m{clip-path:url(#a);}.n{fill:#568cc5;}.o,.q{fill:none;}.o{stroke-miterlimit:10;stroke-width:1.91px;}.p{stroke:none;}</style><clipPath id="a"><rect class="a" width="69" height="52" transform="translate(-1427.547 236.725)"/></clipPath></defs><g transform="translate(1722.547 -175.725)"><path class="b" d="M-1039.164,344.248H-1566.49a27.556,27.556,0,0,1-27.556-27.556h0a27.556,27.556,0,0,1,27.556-27.556h527.326a27.555,27.555,0,0,1,27.555,27.556h0A27.555,27.555,0,0,1-1039.164,344.248Z"/><path class="b" d="M-1035.006,343.2c-.113.348-.232.7-.348,1.047q-1.519,4.455-3.347,9.045-.253.641-.517,1.28-2.225,5.466-4.921,11.131l0,.006-123.72.019-401.387.185V343.2Z"/><path class="c" d="M-1402.976,313.717l-3.108-1.443a.755.755,0,0,1-.433-.662c-.01-.364-.032-.731-.073-1.1a12.748,12.748,0,0,0-.37-1.989.746.746,0,0,1,.27-.8l2.848-2.171a.732.732,0,0,0,.175-.985l-1.749-2.766a.728.728,0,0,0-.932-.263l-2.961,1.452a.73.73,0,0,1-.862-.154,13.139,13.139,0,0,0-3.334-2.512.756.756,0,0,1-.373-.841l.483-1.947a.766.766,0,0,0-.474-.888l-3.058-1.1a.56.56,0,0,0-.188-.044.732.732,0,0,0-.737.424l-1.079,2.321-.26.567a12.654,12.654,0,0,0-1.851.069,13.151,13.151,0,0,0-2.421.493.734.734,0,0,1-.8-.258l-1.746-2.295a.752.752,0,0,0-1.007-.179l-2.117,1.336-.6.386a.767.767,0,0,0-.283.985l1.214,2.474a.733.733,0,0,1-.135.85,13.137,13.137,0,0,0-1.75,2.2,2.206,2.206,0,0,0-.128.2.425.425,0,0,1-.047.066.741.741,0,0,1-.781.273l-3.165-.775c-.034-.009-.072-.013-.106-.019a.759.759,0,0,0-.778.493l-1.107,3.045a.755.755,0,0,0,.392.944l3.243,1.5a.73.73,0,0,1,.426.709,13.063,13.063,0,0,0,.066,2.029c.038.367.094.725.16,1.079a.77.77,0,0,1-.289.756l-2.737,2.089a.732.732,0,0,0-.176.975l1.737,2.735a.766.766,0,0,0,.988.279l2.343-1.148a.757.757,0,0,1,.913.192,13.228,13.228,0,0,0,3.048,2.7.746.746,0,0,1,.329.815l-.7,2.851a.781.781,0,0,0,.486.913l3.033,1.1a.742.742,0,0,0,.928-.389l.066-.135,1.255-2.7a.75.75,0,0,1,.743-.436h.006a13.421,13.421,0,0,0,2.324-.047c.421-.044.831-.113,1.239-.195a.748.748,0,0,1,.75.276l1.772,2.331a.771.771,0,0,0,1.025.188l2.723-1.728a.9.9,0,0,0,.194-.179.763.763,0,0,0,.078-.79l-.972-1.976a.771.771,0,0,1,.05-.75.77.77,0,0,1,.141-.157,13.169,13.169,0,0,0,3.253-4.061.744.744,0,0,1,.709-.4.619.619,0,0,1,.125.022l2.562.628a.753.753,0,0,0,.885-.471l.025-.072,1.082-2.967A.768.768,0,0,0-1402.976,313.717Zm-10.068.981a7.2,7.2,0,0,1-1.913,2.654,4.715,4.715,0,0,1-.555.414,8.236,8.236,0,0,1-2.553,1.066,7.1,7.1,0,0,1-8.547-8.173,8.837,8.837,0,0,1,.424-1.584,6.9,6.9,0,0,1,2.361-2.939c.1-.062.2-.122.3-.182A7.166,7.166,0,0,1-1413.044,314.7Z"/><g class="d"><path class="c" d="M-1381.938,327.093l-2.236-1.038a.539.539,0,0,1-.311-.477c-.009-.263-.025-.524-.053-.79a8.986,8.986,0,0,0-.267-1.427.536.536,0,0,1,.2-.577l2.048-1.562a.53.53,0,0,0,.125-.709l-1.258-1.988a.528.528,0,0,0-.671-.192l-2.129,1.048a.531.531,0,0,1-.621-.113,9.584,9.584,0,0,0-2.4-1.807.54.54,0,0,1-.27-.6l.348-1.4a.55.55,0,0,0-.342-.64l-2.2-.793a.386.386,0,0,0-.134-.031.525.525,0,0,0-.53.3l-.778,1.671-.188.4a10.086,10.086,0,0,0-1.33.05,9.477,9.477,0,0,0-1.741.355.524.524,0,0,1-.574-.185l-1.257-1.65a.546.546,0,0,0-.725-.132l-1.521.963-.436.279a.551.551,0,0,0-.2.709l.872,1.778a.522.522,0,0,1-.1.612,9.694,9.694,0,0,0-1.258,1.58,1.7,1.7,0,0,0-.094.145c-.009.015-.022.031-.031.047a.542.542,0,0,1-.565.194l-2.273-.555a.46.46,0,0,0-.079-.016.546.546,0,0,0-.558.355l-.8,2.189a.545.545,0,0,0,.283.681l2.33,1.078a.525.525,0,0,1,.307.512,9.6,9.6,0,0,0,.047,1.461c.028.26.069.521.119.775a.552.552,0,0,1-.21.542l-1.969,1.5a.528.528,0,0,0-.126.7l1.248,1.967a.552.552,0,0,0,.712.2l1.685-.825a.539.539,0,0,1,.655.139,9.513,9.513,0,0,0,2.2,1.938.544.544,0,0,1,.235.589l-.5,2.048a.558.558,0,0,0,.348.656l2.183.793a.53.53,0,0,0,.668-.276l.047-.1.9-1.941a.546.546,0,0,1,.536-.314h0a9.406,9.406,0,0,0,1.675-.034c.3-.032.6-.082.891-.138a.527.527,0,0,1,.536.2l1.277,1.678a.553.553,0,0,0,.737.132l1.957-1.242a.587.587,0,0,0,.141-.129.552.552,0,0,0,.057-.567l-.7-1.421a.55.55,0,0,1,.035-.54.5.5,0,0,1,.1-.112,9.509,9.509,0,0,0,2.34-2.923.527.527,0,0,1,.508-.286.486.486,0,0,1,.091.013l1.844.451a.541.541,0,0,0,.637-.339l.019-.05.774-2.135A.548.548,0,0,0-1381.938,327.093Zm-7.245.706a5.139,5.139,0,0,1-1.374,1.906,3.273,3.273,0,0,1-.4.3,5.887,5.887,0,0,1-1.835.769,5.107,5.107,0,0,1-6.147-5.881,6.48,6.48,0,0,1,.3-1.138,4.96,4.96,0,0,1,1.7-2.114c.069-.044.141-.088.213-.132A5.154,5.154,0,0,1-1389.183,327.8Z"/></g><path class="c" d="M-1190.723,313.717l-3.108-1.443a.759.759,0,0,1-.433-.662c-.009-.364-.031-.731-.072-1.1a12.72,12.72,0,0,0-.37-1.989.745.745,0,0,1,.27-.8l2.847-2.171a.732.732,0,0,0,.176-.985l-1.75-2.766a.726.726,0,0,0-.931-.263l-2.961,1.452a.731.731,0,0,1-.863-.154,13.139,13.139,0,0,0-3.333-2.512.758.758,0,0,1-.374-.841l.483-1.947a.765.765,0,0,0-.473-.888l-3.058-1.1a.567.567,0,0,0-.188-.044.731.731,0,0,0-.737.424l-1.079,2.321-.26.567a12.654,12.654,0,0,0-1.851.069,13.151,13.151,0,0,0-2.421.493.734.734,0,0,1-.8-.258l-1.747-2.295a.752.752,0,0,0-1.007-.179l-2.116,1.336-.6.386a.767.767,0,0,0-.282.985l1.214,2.474a.732.732,0,0,1-.135.85,13.088,13.088,0,0,0-1.75,2.2c-.05.066-.088.132-.129.2a.33.33,0,0,1-.047.066.74.74,0,0,1-.78.273l-3.165-.775c-.035-.009-.072-.013-.107-.019a.76.76,0,0,0-.778.493l-1.107,3.045a.757.757,0,0,0,.392.944l3.243,1.5a.731.731,0,0,1,.427.709,12.958,12.958,0,0,0,.066,2.029c.037.367.094.725.16,1.079a.772.772,0,0,1-.289.756l-2.738,2.089a.734.734,0,0,0-.176.975l1.738,2.735a.765.765,0,0,0,.988.279l2.343-1.148a.755.755,0,0,1,.912.192,13.251,13.251,0,0,0,3.049,2.7.748.748,0,0,1,.329.815l-.7,2.851a.781.781,0,0,0,.486.913l3.033,1.1a.743.743,0,0,0,.928-.389l.066-.135,1.255-2.7a.751.751,0,0,1,.743-.436h.006a13.42,13.42,0,0,0,2.324-.047c.42-.044.831-.113,1.239-.195a.747.747,0,0,1,.749.276l1.772,2.331a.773.773,0,0,0,1.026.188l2.722-1.728a.929.929,0,0,0,.195-.179.762.762,0,0,0,.078-.79l-.972-1.976a.771.771,0,0,1,.05-.75.773.773,0,0,1,.141-.157,13.165,13.165,0,0,0,3.252-4.061.745.745,0,0,1,.709-.4.616.616,0,0,1,.126.022l2.562.628a.753.753,0,0,0,.885-.471l.024-.072,1.083-2.967A.768.768,0,0,0-1190.723,313.717Zm-10.067.981a7.2,7.2,0,0,1-1.913,2.654,4.794,4.794,0,0,1-.556.414,8.22,8.22,0,0,1-2.552,1.066,7.1,7.1,0,0,1-8.547-8.173,8.925,8.925,0,0,1,.423-1.584,6.908,6.908,0,0,1,2.362-2.939c.1-.062.2-.122.3-.182A7.166,7.166,0,0,1-1200.79,314.7Z"/><g class="d"><path class="c" d="M-1169.685,327.093l-2.236-1.038a.54.54,0,0,1-.31-.477c-.01-.263-.025-.524-.054-.79a9.11,9.11,0,0,0-.266-1.427.534.534,0,0,1,.194-.577l2.048-1.562a.529.529,0,0,0,.126-.709l-1.258-1.988a.528.528,0,0,0-.671-.192l-2.13,1.048a.531.531,0,0,1-.621-.113,9.546,9.546,0,0,0-2.4-1.807.541.541,0,0,1-.269-.6l.348-1.4a.551.551,0,0,0-.342-.64l-2.2-.793a.392.392,0,0,0-.135-.031.527.527,0,0,0-.53.3l-.777,1.671-.189.4a10.077,10.077,0,0,0-1.329.05,9.458,9.458,0,0,0-1.741.355.524.524,0,0,1-.574-.185l-1.258-1.65a.545.545,0,0,0-.724-.132l-1.521.963-.436.279a.551.551,0,0,0-.2.709l.872,1.778a.522.522,0,0,1-.1.612,9.687,9.687,0,0,0-1.258,1.58,1.332,1.332,0,0,0-.094.145c-.009.015-.022.031-.031.047a.542.542,0,0,1-.565.194l-2.274-.555a.432.432,0,0,0-.078-.016.546.546,0,0,0-.558.355l-.8,2.189a.546.546,0,0,0,.282.681l2.33,1.078a.527.527,0,0,1,.308.512,9.567,9.567,0,0,0,.047,1.461c.028.26.069.521.119.775a.553.553,0,0,1-.21.542l-1.97,1.5a.528.528,0,0,0-.125.7l1.248,1.967a.552.552,0,0,0,.712.2l1.684-.825a.54.54,0,0,1,.656.139,9.531,9.531,0,0,0,2.2,1.938.541.541,0,0,1,.235.589l-.5,2.048a.557.557,0,0,0,.348.656l2.183.793a.53.53,0,0,0,.668-.276l.047-.1.9-1.941a.545.545,0,0,1,.536-.314h0a9.409,9.409,0,0,0,1.675-.034c.3-.032.6-.082.891-.138a.527.527,0,0,1,.536.2l1.277,1.678a.552.552,0,0,0,.736.132l1.958-1.242a.582.582,0,0,0,.141-.129.551.551,0,0,0,.056-.567l-.7-1.421a.552.552,0,0,1,.034-.54.526.526,0,0,1,.1-.112,9.506,9.506,0,0,0,2.339-2.923.528.528,0,0,1,.508-.286.464.464,0,0,1,.091.013l1.845.451a.539.539,0,0,0,.636-.339l.019-.05.775-2.135A.547.547,0,0,0-1169.685,327.093Zm-7.244.706a5.139,5.139,0,0,1-1.374,1.906,3.223,3.223,0,0,1-.4.3,5.883,5.883,0,0,1-1.834.769,5.108,5.108,0,0,1-6.148-5.881,6.391,6.391,0,0,1,.305-1.138,4.959,4.959,0,0,1,1.7-2.114c.069-.044.141-.088.213-.132A5.155,5.155,0,0,1-1176.929,327.8Z"/></g><path class="c" d="M-1524.912,313.717l-3.107-1.443a.75.75,0,0,1-.433-.662c-.01-.364-.035-.731-.075-1.1a12.512,12.512,0,0,0-.371-1.989.749.749,0,0,1,.273-.8l2.848-2.171a.739.739,0,0,0,.176-.985l-1.754-2.766a.725.725,0,0,0-.931-.263l-2.958,1.452a.735.735,0,0,1-.865-.154,13.18,13.18,0,0,0-3.331-2.512.752.752,0,0,1-.373-.841l.48-1.947a.761.761,0,0,0-.474-.888l-3.055-1.1a.577.577,0,0,0-.191-.044.725.725,0,0,0-.734.424l-1.082,2.321-.26.567a12.64,12.64,0,0,0-1.85.069,13.144,13.144,0,0,0-2.422.493.733.733,0,0,1-.8-.258l-1.744-2.295a.756.756,0,0,0-1.01-.179l-2.114,1.336-.6.386a.761.761,0,0,0-.279.985l1.21,2.474a.728.728,0,0,1-.135.85,13.443,13.443,0,0,0-1.75,2.2,2.206,2.206,0,0,0-.128.2.291.291,0,0,1-.047.066.74.74,0,0,1-.781.273l-3.165-.775c-.034-.009-.072-.013-.107-.019a.758.758,0,0,0-.777.493l-1.107,3.045a.758.758,0,0,0,.392.944l3.243,1.5a.728.728,0,0,1,.426.709,13.452,13.452,0,0,0,.066,2.029c.041.367.094.725.163,1.079a.775.775,0,0,1-.291.756l-2.739,2.089a.734.734,0,0,0-.175.975l1.737,2.735a.77.77,0,0,0,.991.279l2.34-1.148a.755.755,0,0,1,.913.192,13.309,13.309,0,0,0,3.048,2.7.744.744,0,0,1,.33.815l-.7,2.851a.784.784,0,0,0,.486.913l3.036,1.1a.745.745,0,0,0,.929-.389l.062-.135,1.255-2.7a.756.756,0,0,1,.746-.436h0a13.449,13.449,0,0,0,2.327-.047c.421-.044.828-.113,1.239-.195a.746.746,0,0,1,.747.276l1.772,2.331a.771.771,0,0,0,1.025.188l2.723-1.728a.834.834,0,0,0,.194-.179.765.765,0,0,0,.082-.79l-.976-1.976a.771.771,0,0,1,.05-.75.953.953,0,0,1,.142-.157,13.136,13.136,0,0,0,3.252-4.061.746.746,0,0,1,.708-.4.634.634,0,0,1,.129.022l2.559.628a.755.755,0,0,0,.888-.471l.025-.072,1.082-2.967A.767.767,0,0,0-1524.912,313.717Zm-10.07.981a7.167,7.167,0,0,1-1.913,2.654,4.8,4.8,0,0,1-.555.414,8.222,8.222,0,0,1-2.55,1.066,7.1,7.1,0,0,1-8.546-8.173,8.493,8.493,0,0,1,.42-1.584,6.9,6.9,0,0,1,2.365-2.939c.1-.062.2-.122.294-.182A7.166,7.166,0,0,1-1534.982,314.7Z"/><g class="d"><path class="c" d="M-1503.876,327.093l-2.237-1.038a.546.546,0,0,1-.31-.477c-.006-.263-.025-.524-.053-.79a9.111,9.111,0,0,0-.267-1.427.548.548,0,0,1,.194-.577l2.049-1.562a.531.531,0,0,0,.128-.709l-1.26-1.988a.528.528,0,0,0-.672-.192l-2.126,1.048a.529.529,0,0,1-.621-.113,9.579,9.579,0,0,0-2.4-1.807.538.538,0,0,1-.267-.6l.345-1.4a.552.552,0,0,0-.339-.64l-2.2-.793a.43.43,0,0,0-.138-.031.525.525,0,0,0-.53.3l-.775,1.671-.188.4a10.131,10.131,0,0,0-1.333.05,9.527,9.527,0,0,0-1.741.355.526.526,0,0,1-.574-.185l-1.254-1.65a.55.55,0,0,0-.728-.132l-1.521.963-.433.279a.556.556,0,0,0-.2.709l.872,1.778a.526.526,0,0,1-.094.612,9.608,9.608,0,0,0-1.261,1.58c-.034.048-.062.094-.094.145a.2.2,0,0,1-.031.047.537.537,0,0,1-.562.194l-2.276-.555a.44.44,0,0,0-.079-.016.549.549,0,0,0-.558.355l-.8,2.189a.549.549,0,0,0,.283.681l2.333,1.078a.534.534,0,0,1,.307.512,9.726,9.726,0,0,0,.047,1.461c.029.26.066.521.116.775a.546.546,0,0,1-.21.542l-1.966,1.5a.525.525,0,0,0-.129.7l1.252,1.967a.548.548,0,0,0,.709.2l1.687-.825a.54.54,0,0,1,.655.139,9.521,9.521,0,0,0,2.193,1.938.539.539,0,0,1,.235.589l-.5,2.048a.56.56,0,0,0,.351.656l2.183.793a.527.527,0,0,0,.665-.276l.047-.1.9-1.941a.545.545,0,0,1,.537-.314h0a9.369,9.369,0,0,0,1.671-.034c.3-.032.6-.082.891-.138a.531.531,0,0,1,.539.2l1.274,1.678a.554.554,0,0,0,.737.132l1.96-1.242a.632.632,0,0,0,.138-.129.554.554,0,0,0,.06-.567l-.7-1.421a.55.55,0,0,1,.038-.54.484.484,0,0,1,.1-.112,9.48,9.48,0,0,0,2.34-2.923.534.534,0,0,1,.511-.286.523.523,0,0,1,.091.013l1.841.451a.541.541,0,0,0,.637-.339l.018-.05.778-2.135A.549.549,0,0,0-1503.876,327.093Zm-7.242.706a5.147,5.147,0,0,1-1.377,1.906,2.88,2.88,0,0,1-.4.3,5.871,5.871,0,0,1-1.832.769,5.106,5.106,0,0,1-6.147-5.881,6.219,6.219,0,0,1,.3-1.138,4.982,4.982,0,0,1,1.7-2.114c.072-.044.144-.088.213-.132A5.156,5.156,0,0,1-1511.118,327.8Z"/></g><path class="c" d="M-1472.57,310.86l-3.375-.6a.757.757,0,0,1-.586-.53c-.1-.352-.223-.7-.355-1.045a12.854,12.854,0,0,0-.865-1.825.749.749,0,0,1,.056-.844l2.2-2.825a.739.739,0,0,0-.085-1l-2.4-2.227a.728.728,0,0,0-.966-.015l-2.49,2.164a.731.731,0,0,1-.872.069,13.218,13.218,0,0,0-3.867-1.572.755.755,0,0,1-.574-.718l-.035-2a.761.761,0,0,0-.683-.74l-3.24-.286a.672.672,0,0,0-.2.007.736.736,0,0,0-.6.6l-.448,2.519-.107.614a13.293,13.293,0,0,0-1.772.539,13.707,13.707,0,0,0-2.214,1.1.732.732,0,0,1-.838-.044l-2.277-1.772a.752.752,0,0,0-1.019.085l-1.7,1.835-.486.527a.767.767,0,0,0-.019,1.025l1.807,2.083a.725.725,0,0,1,.088.853,13.155,13.155,0,0,0-1.129,2.575c-.032.075-.051.147-.076.222a.284.284,0,0,1-.025.076.749.749,0,0,1-.687.464l-3.258.063a.387.387,0,0,0-.107.009.761.761,0,0,0-.627.674l-.289,3.228a.754.754,0,0,0,.621.809l3.519.624a.729.729,0,0,1,.593.574,13.343,13.343,0,0,0,.583,1.947q.2.513.433,1a.775.775,0,0,1-.084.806l-2.114,2.719a.735.735,0,0,0,.081.988l2.381,2.2a.767.767,0,0,0,1.025.018l1.97-1.712a.758.758,0,0,1,.931-.05,13.224,13.224,0,0,0,3.638,1.828.747.747,0,0,1,.527.706l.056,2.935a.774.774,0,0,0,.7.753l3.215.292a.747.747,0,0,0,.8-.612l.028-.147.52-2.926a.755.755,0,0,1,.609-.615l0,0a13.158,13.158,0,0,0,2.236-.64c.395-.151.775-.32,1.148-.505a.746.746,0,0,1,.794.075l2.311,1.8a.768.768,0,0,0,1.038-.081l2.189-2.368a.838.838,0,0,0,.141-.222.77.77,0,0,0-.125-.788l-1.446-1.659a.76.76,0,0,1-.144-.737.876.876,0,0,1,.1-.188,13.176,13.176,0,0,0,2.1-4.758.734.734,0,0,1,.58-.567.77.77,0,0,1,.129-.016l2.638-.047a.754.754,0,0,0,.734-.684l.006-.075.286-3.146A.768.768,0,0,0-1472.57,310.86Zm-9.481,3.531a7.235,7.235,0,0,1-1.17,3.052,4.916,4.916,0,0,1-.433.542,8.1,8.1,0,0,1-2.192,1.684,7.1,7.1,0,0,1-10.356-5.711,8.99,8.99,0,0,1,0-1.64,6.894,6.894,0,0,1,1.534-3.444c.078-.088.157-.169.238-.254A7.167,7.167,0,0,1-1482.051,314.391Z"/><path class="c" d="M-1312.658,313.717l-3.108-1.443a.754.754,0,0,1-.433-.662c-.009-.364-.034-.731-.075-1.1a12.375,12.375,0,0,0-.37-1.989.746.746,0,0,1,.273-.8l2.848-2.171a.739.739,0,0,0,.175-.985l-1.753-2.766a.726.726,0,0,0-.931-.263l-2.958,1.452a.736.736,0,0,1-.866-.154,13.158,13.158,0,0,0-3.33-2.512.752.752,0,0,1-.373-.841l.479-1.947a.761.761,0,0,0-.473-.888l-3.055-1.1a.577.577,0,0,0-.191-.044.724.724,0,0,0-.734.424l-1.082,2.321-.261.567a12.645,12.645,0,0,0-1.85.069,13.134,13.134,0,0,0-2.421.493.734.734,0,0,1-.8-.258l-1.744-2.295a.755.755,0,0,0-1.009-.179l-2.114,1.336-.606.386a.763.763,0,0,0-.279.985l1.211,2.474a.728.728,0,0,1-.135.85,13.4,13.4,0,0,0-1.75,2.2c-.05.066-.088.132-.129.2a.244.244,0,0,1-.047.066.739.739,0,0,1-.781.273l-3.164-.775c-.035-.009-.072-.013-.107-.019a.758.758,0,0,0-.777.493l-1.108,3.045a.76.76,0,0,0,.392.944l3.243,1.5a.731.731,0,0,1,.427.709,13.325,13.325,0,0,0,.066,2.029c.04.367.094.725.163,1.079a.774.774,0,0,1-.292.756l-2.738,2.089a.733.733,0,0,0-.175.975l1.737,2.735a.77.77,0,0,0,.991.279l2.34-1.148a.753.753,0,0,1,.912.192,13.315,13.315,0,0,0,3.049,2.7.742.742,0,0,1,.329.815l-.7,2.851a.784.784,0,0,0,.486.913l3.036,1.1a.744.744,0,0,0,.928-.389l.063-.135,1.254-2.7a.757.757,0,0,1,.747-.436h0a13.449,13.449,0,0,0,2.327-.047c.42-.044.828-.113,1.239-.195a.744.744,0,0,1,.746.276l1.772,2.331a.773.773,0,0,0,1.026.188l2.722-1.728a.839.839,0,0,0,.195-.179.763.763,0,0,0,.081-.79l-.975-1.976a.77.77,0,0,1,.05-.75,1,1,0,0,1,.141-.157,13.122,13.122,0,0,0,3.252-4.061.748.748,0,0,1,.709-.4.644.644,0,0,1,.129.022l2.559.628a.755.755,0,0,0,.888-.471l.025-.072,1.082-2.967A.767.767,0,0,0-1312.658,313.717Zm-10.07.981a7.167,7.167,0,0,1-1.913,2.654,4.794,4.794,0,0,1-.556.414,8.215,8.215,0,0,1-2.549,1.066,7.1,7.1,0,0,1-8.547-8.173,8.574,8.574,0,0,1,.421-1.584,6.9,6.9,0,0,1,2.364-2.939c.1-.062.2-.122.3-.182A7.166,7.166,0,0,1-1322.728,314.7Z"/><g class="d"><path class="c" d="M-1291.623,327.093l-2.236-1.038a.546.546,0,0,1-.31-.477c-.007-.263-.025-.524-.054-.79a9.11,9.11,0,0,0-.266-1.427.546.546,0,0,1,.194-.577l2.048-1.562a.53.53,0,0,0,.129-.709l-1.261-1.988a.527.527,0,0,0-.671-.192l-2.127,1.048a.528.528,0,0,1-.62-.113,9.585,9.585,0,0,0-2.4-1.807.539.539,0,0,1-.266-.6l.345-1.4a.552.552,0,0,0-.339-.64l-2.2-.793a.43.43,0,0,0-.138-.031.526.526,0,0,0-.53.3l-.774,1.671-.189.4a10.116,10.116,0,0,0-1.332.05,9.508,9.508,0,0,0-1.741.355.526.526,0,0,1-.574-.185l-1.255-1.65a.549.549,0,0,0-.727-.132l-1.521.963-.433.279a.556.556,0,0,0-.2.709l.872,1.778a.526.526,0,0,1-.094.612,9.55,9.55,0,0,0-1.261,1.58c-.034.048-.063.094-.094.145a.239.239,0,0,1-.031.047.538.538,0,0,1-.562.194l-2.277-.555a.432.432,0,0,0-.078-.016.548.548,0,0,0-.558.355l-.8,2.189a.549.549,0,0,0,.282.681l2.334,1.078a.536.536,0,0,1,.307.512,9.6,9.6,0,0,0,.047,1.461c.028.26.066.521.116.775a.545.545,0,0,1-.21.542l-1.967,1.5a.526.526,0,0,0-.128.7l1.251,1.967a.548.548,0,0,0,.709.2l1.688-.825a.54.54,0,0,1,.655.139,9.514,9.514,0,0,0,2.192,1.938.537.537,0,0,1,.235.589l-.5,2.048a.559.559,0,0,0,.351.656l2.183.793a.527.527,0,0,0,.665-.276l.047-.1.9-1.941a.542.542,0,0,1,.536-.314h0a9.38,9.38,0,0,0,1.672-.034c.3-.032.6-.082.891-.138a.531.531,0,0,1,.539.2l1.273,1.678a.555.555,0,0,0,.738.132l1.96-1.242a.629.629,0,0,0,.138-.129.552.552,0,0,0,.059-.567l-.7-1.421a.553.553,0,0,1,.037-.54.515.515,0,0,1,.1-.112,9.461,9.461,0,0,0,2.339-2.923.536.536,0,0,1,.512-.286.523.523,0,0,1,.091.013l1.84.451a.54.54,0,0,0,.637-.339l.019-.05.778-2.135A.549.549,0,0,0-1291.623,327.093Zm-7.241.706a5.147,5.147,0,0,1-1.377,1.906,2.88,2.88,0,0,1-.4.3,5.883,5.883,0,0,1-1.832.769,5.106,5.106,0,0,1-6.147-5.881,6.122,6.122,0,0,1,.3-1.138,4.982,4.982,0,0,1,1.7-2.114c.072-.044.144-.088.213-.132A5.156,5.156,0,0,1-1298.864,327.8Z"/></g><path class="c" d="M-1260.316,310.86l-3.375-.6a.757.757,0,0,1-.586-.53q-.156-.528-.355-1.045a13.085,13.085,0,0,0-.865-1.825.749.749,0,0,1,.056-.844l2.2-2.825a.738.738,0,0,0-.084-1l-2.4-2.227a.728.728,0,0,0-.966-.015l-2.491,2.164a.731.731,0,0,1-.872.069,13.2,13.2,0,0,0-3.867-1.572.757.757,0,0,1-.574-.718l-.034-2a.761.761,0,0,0-.684-.74l-3.24-.286a.666.666,0,0,0-.194.007.735.735,0,0,0-.6.6L-1279.7,300l-.106.614a13.293,13.293,0,0,0-1.772.539,13.718,13.718,0,0,0-2.215,1.1.73.73,0,0,1-.837-.044l-2.277-1.772a.752.752,0,0,0-1.019.085l-1.7,1.835-.486.527a.767.767,0,0,0-.019,1.025l1.806,2.083a.724.724,0,0,1,.088.853,13.213,13.213,0,0,0-1.129,2.575c-.031.075-.05.147-.075.222a.323.323,0,0,1-.025.076.749.749,0,0,1-.687.464l-3.259.063a.379.379,0,0,0-.106.009.762.762,0,0,0-.628.674l-.288,3.228a.754.754,0,0,0,.621.809l3.519.624a.729.729,0,0,1,.593.574,13.253,13.253,0,0,0,.583,1.947q.2.513.433,1a.773.773,0,0,1-.085.806l-2.114,2.719a.735.735,0,0,0,.082.988l2.38,2.2a.768.768,0,0,0,1.026.018l1.969-1.712a.76.76,0,0,1,.932-.05,13.223,13.223,0,0,0,3.638,1.828.748.748,0,0,1,.527.706l.056,2.935a.774.774,0,0,0,.7.753l3.215.292a.747.747,0,0,0,.8-.612l.028-.147.521-2.926a.755.755,0,0,1,.608-.615l0,0a13.179,13.179,0,0,0,2.236-.64c.4-.151.775-.32,1.148-.505a.744.744,0,0,1,.793.075l2.312,1.8a.769.769,0,0,0,1.038-.081l2.189-2.368a.861.861,0,0,0,.141-.222.77.77,0,0,0-.125-.788l-1.446-1.659a.76.76,0,0,1-.144-.737.882.882,0,0,1,.1-.188,13.176,13.176,0,0,0,2.1-4.758.734.734,0,0,1,.58-.567.77.77,0,0,1,.129-.016l2.638-.047a.754.754,0,0,0,.734-.684l.006-.075.285-3.146A.767.767,0,0,0-1260.316,310.86Zm-9.481,3.531a7.25,7.25,0,0,1-1.17,3.052,5.018,5.018,0,0,1-.433.542,8.109,8.109,0,0,1-2.192,1.684,7.1,7.1,0,0,1-10.356-5.711,8.979,8.979,0,0,1,0-1.64,6.894,6.894,0,0,1,1.534-3.444c.078-.088.156-.169.238-.254A7.167,7.167,0,0,1-1269.8,314.391Z"/><path class="c" d="M-1100.4,313.717l-3.108-1.443a.752.752,0,0,1-.433-.662c-.009-.364-.034-.731-.075-1.1a12.5,12.5,0,0,0-.37-1.989.746.746,0,0,1,.273-.8l2.847-2.171a.738.738,0,0,0,.176-.985l-1.753-2.766a.727.727,0,0,0-.932-.263l-2.957,1.452a.736.736,0,0,1-.866-.154,13.178,13.178,0,0,0-3.331-2.512.753.753,0,0,1-.373-.841l.48-1.947a.761.761,0,0,0-.474-.888l-3.054-1.1a.589.589,0,0,0-.191-.044.724.724,0,0,0-.734.424l-1.082,2.321-.261.567a12.648,12.648,0,0,0-1.85.069,13.116,13.116,0,0,0-2.421.493.734.734,0,0,1-.8-.258l-1.744-2.295a.756.756,0,0,0-1.01-.179l-2.114,1.336-.6.386a.762.762,0,0,0-.279.985l1.21,2.474a.728.728,0,0,1-.134.85,13.346,13.346,0,0,0-1.75,2.2,2.221,2.221,0,0,0-.129.2.239.239,0,0,1-.047.066.739.739,0,0,1-.781.273l-3.165-.775c-.034-.009-.072-.013-.106-.019a.759.759,0,0,0-.778.493l-1.107,3.045a.759.759,0,0,0,.392.944l3.243,1.5a.728.728,0,0,1,.426.709,13.452,13.452,0,0,0,.066,2.029c.041.367.095.725.163,1.079a.771.771,0,0,1-.291.756l-2.738,2.089a.733.733,0,0,0-.176.975l1.738,2.735a.77.77,0,0,0,.991.279l2.339-1.148a.755.755,0,0,1,.913.192,13.315,13.315,0,0,0,3.049,2.7.744.744,0,0,1,.329.815l-.7,2.851a.785.785,0,0,0,.487.913l3.036,1.1a.744.744,0,0,0,.928-.389l.062-.135,1.255-2.7a.756.756,0,0,1,.746-.436h0a13.459,13.459,0,0,0,2.328-.047c.42-.044.828-.113,1.238-.195a.745.745,0,0,1,.747.276l1.772,2.331a.773.773,0,0,0,1.026.188l2.722-1.728a.837.837,0,0,0,.194-.179.763.763,0,0,0,.082-.79l-.976-1.976a.771.771,0,0,1,.051-.75.952.952,0,0,1,.141-.157,13.136,13.136,0,0,0,3.252-4.061.747.747,0,0,1,.709-.4.623.623,0,0,1,.128.022l2.56.628a.754.754,0,0,0,.887-.471l.025-.072,1.082-2.967A.767.767,0,0,0-1100.4,313.717Zm-10.071.981a7.156,7.156,0,0,1-1.913,2.654,4.726,4.726,0,0,1-.555.414,8.22,8.22,0,0,1-2.55,1.066,7.1,7.1,0,0,1-8.546-8.173,8.646,8.646,0,0,1,.42-1.584,6.914,6.914,0,0,1,2.365-2.939c.1-.062.2-.122.3-.182A7.165,7.165,0,0,1-1110.475,314.7Z"/><g class="d"><path class="c" d="M-1079.369,327.093l-2.236-1.038a.548.548,0,0,1-.311-.477c-.006-.263-.025-.524-.053-.79a9.11,9.11,0,0,0-.266-1.427.544.544,0,0,1,.194-.577l2.048-1.562a.529.529,0,0,0,.128-.709l-1.26-1.988a.527.527,0,0,0-.671-.192l-2.127,1.048a.529.529,0,0,1-.621-.113,9.562,9.562,0,0,0-2.4-1.807.541.541,0,0,1-.267-.6l.345-1.4a.551.551,0,0,0-.338-.64l-2.2-.793a.43.43,0,0,0-.138-.031.525.525,0,0,0-.53.3l-.774,1.671-.189.4a10.136,10.136,0,0,0-1.333.05,9.515,9.515,0,0,0-1.74.355.526.526,0,0,1-.574-.185l-1.255-1.65a.549.549,0,0,0-.727-.132l-1.521.963-.433.279a.553.553,0,0,0-.2.709l.871,1.778a.526.526,0,0,1-.094.612,9.538,9.538,0,0,0-1.26,1.58c-.035.048-.063.094-.094.145a.253.253,0,0,1-.032.047.536.536,0,0,1-.561.194l-2.277-.555a.432.432,0,0,0-.078-.016.549.549,0,0,0-.559.355l-.8,2.189a.548.548,0,0,0,.282.681l2.333,1.078a.536.536,0,0,1,.308.512,9.6,9.6,0,0,0,.047,1.461c.028.26.066.521.116.775a.55.55,0,0,1-.21.542l-1.967,1.5a.524.524,0,0,0-.128.7l1.251,1.967a.548.548,0,0,0,.709.2l1.687-.825a.541.541,0,0,1,.656.139,9.514,9.514,0,0,0,2.192,1.938.538.538,0,0,1,.235.589l-.5,2.048a.56.56,0,0,0,.352.656l2.183.793a.526.526,0,0,0,.664-.276l.047-.1.9-1.941a.542.542,0,0,1,.536-.314h0a9.381,9.381,0,0,0,1.672-.034c.3-.032.6-.082.89-.138a.534.534,0,0,1,.54.2l1.273,1.678a.554.554,0,0,0,.737.132l1.96-1.242a.586.586,0,0,0,.138-.129.55.55,0,0,0,.06-.567l-.7-1.421a.553.553,0,0,1,.038-.54.5.5,0,0,1,.1-.112,9.45,9.45,0,0,0,2.34-2.923.534.534,0,0,1,.511-.286.5.5,0,0,1,.091.013l1.841.451a.54.54,0,0,0,.637-.339l.019-.05.778-2.135A.55.55,0,0,0-1079.369,327.093Zm-7.242.706a5.133,5.133,0,0,1-1.376,1.906,2.816,2.816,0,0,1-.4.3,5.862,5.862,0,0,1-1.832.769,5.106,5.106,0,0,1-6.147-5.881,6.219,6.219,0,0,1,.3-1.138,4.99,4.99,0,0,1,1.7-2.114c.072-.044.145-.088.214-.132A5.155,5.155,0,0,1-1086.611,327.8Z"/></g><path class="c" d="M-1048.063,310.86l-3.374-.6a.761.761,0,0,1-.587-.53c-.1-.352-.223-.7-.354-1.045a12.952,12.952,0,0,0-.866-1.825.747.747,0,0,1,.057-.844l2.2-2.825a.739.739,0,0,0-.084-1l-2.4-2.227a.728.728,0,0,0-.966-.015l-2.49,2.164a.731.731,0,0,1-.872.069,13.208,13.208,0,0,0-3.867-1.572.756.756,0,0,1-.574-.718l-.034-2a.761.761,0,0,0-.684-.74l-3.24-.286a.663.663,0,0,0-.194.007.734.734,0,0,0-.6.6l-.449,2.519-.107.614a13.386,13.386,0,0,0-1.772.539,13.712,13.712,0,0,0-2.214,1.1.73.73,0,0,1-.837-.044l-2.277-1.772a.753.753,0,0,0-1.02.085l-1.7,1.835-.486.527a.767.767,0,0,0-.019,1.025l1.806,2.083a.725.725,0,0,1,.088.853,13.22,13.22,0,0,0-1.129,2.575c-.032.075-.05.147-.075.222a.282.282,0,0,1-.026.076.746.746,0,0,1-.686.464l-3.259.063a.381.381,0,0,0-.106.009.762.762,0,0,0-.628.674l-.288,3.228a.753.753,0,0,0,.621.809l3.519.624a.728.728,0,0,1,.592.574,13.243,13.243,0,0,0,.584,1.947c.131.342.276.675.432,1a.771.771,0,0,1-.084.806l-2.114,2.719a.734.734,0,0,0,.082.988l2.38,2.2a.767.767,0,0,0,1.025.018l1.97-1.712a.76.76,0,0,1,.932-.05,13.218,13.218,0,0,0,3.637,1.828.747.747,0,0,1,.527.706l.057,2.935a.773.773,0,0,0,.7.753l3.215.292a.747.747,0,0,0,.8-.612l.028-.147.521-2.926a.754.754,0,0,1,.608-.615l0,0a13.153,13.153,0,0,0,2.236-.64c.4-.151.775-.32,1.148-.505a.746.746,0,0,1,.794.075l2.311,1.8a.769.769,0,0,0,1.038-.081l2.189-2.368a.865.865,0,0,0,.142-.222.772.772,0,0,0-.126-.788l-1.445-1.659a.76.76,0,0,1-.145-.737.935.935,0,0,1,.1-.188,13.2,13.2,0,0,0,2.105-4.758.732.732,0,0,1,.58-.567.769.769,0,0,1,.129-.016l2.637-.047a.752.752,0,0,0,.734-.684l.006-.075.286-3.146A.767.767,0,0,0-1048.063,310.86Zm-9.481,3.531a7.235,7.235,0,0,1-1.169,3.052,5.156,5.156,0,0,1-.433.542,8.124,8.124,0,0,1-2.192,1.684,7.1,7.1,0,0,1-10.356-5.711,8.818,8.818,0,0,1,0-1.64,6.893,6.893,0,0,1,1.533-3.444c.079-.088.157-.169.239-.254A7.167,7.167,0,0,1-1057.544,314.391Z"/><path class="c" d="M-1039.236,345.485h-527.253a28.827,28.827,0,0,1-28.794-28.795,28.6,28.6,0,0,1,8.435-20.359,28.6,28.6,0,0,1,20.359-8.433h527.253a28.824,28.824,0,0,1,28.791,28.792,28.616,28.616,0,0,1-8.432,20.362A28.6,28.6,0,0,1-1039.236,345.485Zm-527.253-55.114a26.148,26.148,0,0,0-18.61,7.708,26.15,26.15,0,0,0-7.712,18.611,26.352,26.352,0,0,0,26.322,26.322h527.253a26.146,26.146,0,0,0,18.611-7.708,26.164,26.164,0,0,0,7.708-18.614,26.349,26.349,0,0,0-26.319-26.319Z"/><rect class="e" width="92.275" height="50.724" transform="translate(-1453.379 287.887) rotate(180)"/><rect class="f" width="61.517" height="50.724" transform="translate(-1453.379 287.887) rotate(180)"/><path class="f" d="M-1545.618,275.023h9.748l-.859-2.743.859-1.96h-9.748Z"/><path class="g" d="M-1514.9,252.86h9.748l-.859-2.743.859-1.96h-9.748Z"/><path class="f" d="M-1514.9,248.157h-9.748l.859,2.743-.859,1.96h9.748Z"/><path class="g" d="M-1453.378,275.567h-9.748l.859,2.743-.859,1.96h9.748Z"/><rect class="c" width="17.702" height="6.887" transform="translate(-1475.109 240.602)"/><rect class="h" width="35.032" height="21.364" transform="translate(-934.995 366.192) rotate(180)"/><rect class="i" width="25.909" height="21.364" transform="translate(-934.995 366.192) rotate(180)"/><path class="j" d="M-960.9,351.44h4.106l-.362-1.155.362-.825H-960.9Z"/><path class="i" d="M-960.9,349.459h-4.106l.361,1.155-.361.826h4.106Z"/><path class="j" d="M-934.994,361H-939.1l.362,1.155-.362.825h4.106Z"/><rect class="c" width="7.456" height="2.901" transform="translate(-944.147 346.277)"/><rect class="h" width="38.942" height="21.407" transform="translate(-970.027 366.214) rotate(180)"/><rect class="i" width="25.961" height="21.407" transform="translate(-970.027 366.214) rotate(180)"/><path class="i" d="M-1008.954,360.785h4.114l-.362-1.158.362-.827h-4.114Z"/><path class="j" d="M-995.988,351.432h4.114l-.362-1.158.362-.827h-4.114Z"/><path class="i" d="M-995.988,349.447h-4.114l.362,1.157-.362.827h4.114Z"/><path class="j" d="M-970.026,361.015h-4.114l.362,1.157-.362.827h4.114Z"/><rect class="c" width="7.471" height="2.906" transform="translate(-979.197 346.258)"/><rect class="c" width="827.743" height="3.055" rx="1.106" transform="translate(-1693.754 365.873)"/><rect class="h" width="38.484" height="21.155" transform="translate(-1187.645 287.862) rotate(179.946)"/><rect class="i" width="25.656" height="21.155" transform="translate(-1187.645 287.862) rotate(179.945)"/><path class="j" d="M-1213.315,273.278l4.065,0-.359-1.144.357-.818-4.065,0Z"/><path class="i" d="M-1213.317,271.317l-4.065,0,.359,1.144-.357.818,4.066,0Z"/><path class="j" d="M-1187.649,282.724l-4.065,0,.359,1.144-.358.818,4.066,0Z"/><rect class="c" width="7.383" height="2.872" transform="translate(-1196.725 268.146)"/><rect class="h" width="38.484" height="21.155" transform="translate(-1130.253 287.862) rotate(179.946)"/><rect class="i" width="25.656" height="21.155" transform="translate(-1130.253 287.862) rotate(179.945)"/><path class="j" d="M-1155.923,273.278l4.065,0-.359-1.144.357-.818-4.065,0Z"/><path class="i" d="M-1155.925,271.317l-4.065,0,.359,1.144-.357.818,4.066,0Z"/><path class="j" d="M-1130.257,282.724l-4.065,0,.359,1.144-.357.818,4.065,0Z"/><rect class="c" width="7.383" height="2.872" transform="translate(-1139.333 268.146)"/><rect class="h" width="38.484" height="21.155" transform="translate(-1072.862 287.862) rotate(179.946)"/><rect class="i" width="25.656" height="21.155" transform="translate(-1072.861 287.862) rotate(179.945)"/><path class="j" d="M-1098.531,273.278l4.065,0-.359-1.144.358-.818-4.066,0Z"/><path class="i" d="M-1098.533,271.317l-4.065,0,.359,1.144-.357.818,4.065,0Z"/><path class="j" d="M-1072.866,282.724l-4.066,0,.359,1.144-.357.818,4.065,0Z"/><rect class="c" width="7.383" height="2.872" transform="translate(-1081.942 268.146)"/><g class="k" transform="translate(-1722.547 365.725)"><path class="p" d="M9,0H877a9,9,0,0,1,9,9V52a0,0,0,0,1,0,0H0a0,0,0,0,1,0,0V9A9,9,0,0,1,9,0Z"/><path class="q" d="M9,2H877a7,7,0,0,1,7,7V48a2,2,0,0,1-2,2H4a2,2,0,0,1-2-2V9A7,7,0,0,1,9,2Z"/></g><text class="l" transform="translate(-1613.547 192.725)"><tspan x="0" y="0">Long Url</tspan></text><text class="l" transform="translate(-1049.547 219.725)"><tspan x="0" y="0">Short Url</tspan></text><path class="c" d="M25.465,26.3c5.965,8.972,14.972,12,24.8,13.458,1.638.242,3.509-.364,5.03.727.117.121.117.364.351,1.091-6.2,1.7-12.048.121-17.662-2.182A34.427,34.427,0,0,1,23.594,28.6c-1.871,2.425.468,5.213-1.521,7.032-1.521.121-1.4-1.091-1.638-1.94-.585-2.425.7-5.213-.936-7.517V18.9c.819.364,1.871.121,2.69.849,4.445,3.88,9.357,6.062,15.323,5.335.468-.121,1.053.364,1.521.606.117,0,.117.364.351,1.091-3.392,1.576-6.9.97-10.293.242-1.17-.364-2.339-1.091-3.626-.727,0-.485,0-1.212-.819-.606A4.96,4.96,0,0,0,25.465,26.3Z" transform="translate(-1488.022 251.394) rotate(-168)"/><path class="c" d="M5.965,15.989c5.965-8.972,14.972-12,24.8-13.458,1.638-.242,3.509.364,5.03-.727.117-.121.117-.364.351-1.091C29.944-.984,24.1.592,18.481,2.9A34.427,34.427,0,0,0,4.094,13.686c-1.871-2.425.468-5.213-1.521-7.032C1.053,6.533,1.17,7.745.936,8.594c-.585,2.425.7,5.213-.936,7.517v7.274c.819-.364,1.871-.121,2.69-.849,4.445-3.88,9.357-6.062,15.323-5.335.468.121,1.053-.364,1.521-.606.117,0,.117-.364.351-1.091-3.392-1.576-6.9-.97-10.293-.242-1.17.364-2.339,1.091-3.626.727,0,.485,0,1.212-.819.606A4.96,4.96,0,0,1,5.965,15.989Z" transform="matrix(0.978, -0.208, 0.208, 0.978, -1096.52, 226.979)"/><g class="m"><rect class="e" width="90.901" height="50.724" transform="translate(-1335.785 287.887) rotate(180)"/><rect class="f" width="61.517" height="50.724" transform="translate(-1334.411 287.887) rotate(180)"/><path class="f" d="M-1426.65,275.023h9.748l-.859-2.743.859-1.96h-9.748Z"/><path class="g" d="M-1395.928,252.86h9.748l-.859-2.743.859-1.96h-9.748Z"/><path class="f" d="M-1395.928,248.157h-9.748l.859,2.743-.859,1.96h9.748Z"/><path class="n" d="M-1334.41,275.567h-9.748l.858,2.743-.858,1.96h9.748Z"/><rect class="c" width="17.702" height="6.887" transform="translate(-1356.141 240.602)"/></g><path class="o" d="M-1359.522,264.9V202.409c0-3.961,4.328-7.172,9.667-7.172h92.237c5.34,0,9.668,3.211,9.668,7.172V264.9Z" transform="translate(0.475 24.227)"/><rect class="h" width="38.484" height="21.155" transform="translate(-1072.862 287.862) rotate(179.946)"/><rect class="i" width="25.656" height="21.155" transform="translate(-1072.861 287.862) rotate(179.945)"/><path class="j" d="M-1098.531,273.278l4.065,0-.359-1.144.358-.818-4.066,0Z"/><path class="i" d="M-1098.533,271.317l-4.065,0,.359,1.144-.357.818,4.065,0Z"/><path class="j" d="M-1072.866,282.724l-4.066,0,.359,1.144-.357.818,4.065,0Z"/><rect class="c" width="7.383" height="2.872" transform="translate(-1081.942 268.146)"/><g transform="translate(120 55)"><rect class="h" width="38.484" height="21.155" transform="translate(-1072.862 287.862) rotate(179.946)"/><rect class="i" width="25.656" height="21.155" transform="translate(-1072.861 287.862) rotate(179.945)"/><path class="j" d="M-1098.531,273.278l4.065,0-.359-1.144.358-.818-4.066,0Z"/><path class="i" d="M-1098.533,271.317l-4.065,0,.359,1.144-.357.818,4.065,0Z"/><path class="j" d="M-1072.866,282.724l-4.066,0,.359,1.144-.357.818,4.065,0Z"/><rect class="c" width="7.383" height="2.872" transform="translate(-1081.942 268.146)"/></g></g></svg>